<svg width="29" height="29" viewBox="0 0 29 29" fill="none" xmlns="http://www.w3.org/2000/svg">
<path d="M25.375 9.66667H23.5625V6.90476C23.5625 3.09333 19.5025 0 14.5 0C9.4975 0 5.4375 3.09333 5.4375 6.90476V9.66667H3.625C1.63125 9.66667 0 10.9095 0 12.4286V26.2381C0 27.7571 1.63125 29 3.625 29H25.375C27.3687 29 29 27.7571 29 26.2381V12.4286C29 10.9095 27.3687 9.66667 25.375 9.66667ZM14.5 22.0952C12.5063 22.0952 10.875 20.8524 10.875 19.3333C10.875 17.8143 12.5063 16.5714 14.5 16.5714C16.4937 16.5714 18.125 17.8143 18.125 19.3333C18.125 20.8524 16.4937 22.0952 14.5 22.0952ZM20.1188 9.66667H8.88125V6.90476C8.88125 4.54333 11.4006 2.62381 14.5 2.62381C17.5994 2.62381 20.1188 4.54333 20.1188 6.90476V9.66667Z" fill="white"/>
</svg>
