<svg width="34" height="32" viewBox="0 0 34 32" fill="none" xmlns="http://www.w3.org/2000/svg">
<path d="M17 0C7.616 0 0 7.168 0 16C0 24.832 7.616 32 17 32C26.384 32 34 24.832 34 16C34 7.168 26.384 0 17 0ZM23.137 10.144C24.956 10.144 26.418 11.52 26.418 13.232C26.418 14.944 24.956 16.32 23.137 16.32C21.318 16.32 19.856 14.944 19.856 13.232C19.839 11.52 21.318 10.144 23.137 10.144ZM12.937 7.616C15.147 7.616 16.949 9.312 16.949 11.392C16.949 13.472 15.147 15.168 12.937 15.168C10.727 15.168 8.925 13.472 8.925 11.392C8.925 9.296 10.71 7.616 12.937 7.616ZM12.937 22.224V28.224C8.857 27.024 5.627 24.064 4.199 20.288C5.984 18.496 10.438 17.584 12.937 17.584C13.838 17.584 14.977 17.712 16.167 17.936C13.379 19.328 12.937 21.168 12.937 22.224ZM17 28.8C16.541 28.8 16.099 28.784 15.657 28.736V22.224C15.657 19.952 20.655 18.816 23.137 18.816C24.956 18.816 28.101 19.44 29.665 20.656C27.676 25.408 22.763 28.8 17 28.8Z" fill="white"/>
</svg>
